<svg width="164" height="43" viewBox="0 0 164 43" fill="none" xmlns="http://www.w3.org/2000/svg">
<path d="M15.7 30.75H6.0125V27L13.2 19.5H0.887497V14.8125L20.6375 14.875V19.75L13.5125 27H20.7625V43H0.887497V34.6875H5.6375V38.3125H15.7V30.75ZM47.92 43H36.42V19.3125H30.67V14.8125H36.42V6.5H41.17V14.8125H47.92V19.3125H41.17V38.5H47.92V43ZM71.7025 26.375V19.3125H56.89V14.8125H76.7025V43H57.015V26.375H71.7025ZM71.7025 30.9375H61.64V38.375H71.7025V30.9375ZM90.4225 38.3125H100.485V33L85.6725 29.5625V14.8125H105.485V25.0625H100.798V19.5H90.6725V25.0625L105.36 28.5V42.9375L85.6725 43V35.9375H90.4225V38.3125ZM136.205 43H128.83L120.142 30.625H119.205V43H114.455V0.75H119.205V26.8125L128.767 14.875H135.58L123.705 28.4375L136.205 43ZM147.988 38.3125H158.05V33L143.238 29.5625V14.8125H163.05V25.0625H158.363V19.5H148.238V25.0625L162.925 28.5V42.9375L143.238 43V35.9375H147.988V38.3125Z" fill="white"/>
</svg>
